<svg xmlns="http://www.w3.org/2000/svg" viewBox="0 0 1280 800" font-family="Inter, -apple-system, Segoe UI, sans-serif">
  <defs>
    <linearGradient id="bg2" x1="0" y1="0" x2="0" y2="1">
      <stop offset="0%" stop-color="#0f1419"/>
      <stop offset="100%" stop-color="#0b0e14"/>
    </linearGradient>
    <linearGradient id="profitCard" x1="0" y1="0" x2="1" y2="1">
      <stop offset="0%" stop-color="#0d3320"/>
      <stop offset="100%" stop-color="#0b2a1a"/>
    </linearGradient>
    <linearGradient id="accentCard" x1="0" y1="0" x2="1" y2="1">
      <stop offset="0%" stop-color="#1e2a52"/>
      <stop offset="100%" stop-color="#162040"/>
    </linearGradient>
  </defs>
  <rect width="1280" height="800" fill="url(#bg2)"/>

  <!-- Header -->
  <rect x="0" y="0" width="1280" height="56" fill="#0a0d12"/>
  <rect x="0" y="55" width="1280" height="1" fill="#1f2937"/>
  <circle cx="32" cy="28" r="14" fill="#3b82f6"/>
  <text x="32" y="34" text-anchor="middle" font-size="14" font-weight="700" fill="#fff">₿</text>
  <text x="56" y="34" font-size="14" font-weight="700" fill="#e5e7eb">Upbit AutoTrade</text>

  <!-- Nav tabs -->
  <rect x="200" y="16" width="88" height="28" rx="6" fill="#1e3a8a"/>
  <text x="244" y="35" text-anchor="middle" font-size="12" fill="#93c5fd" font-weight="600">📊 대시보드</text>
  <text x="310" y="35" font-size="12" fill="#9ca3af">⚙️ 설정</text>
  <text x="360" y="35" font-size="12" fill="#9ca3af">🧪 백테스트</text>

  <!-- Header buttons -->
  <circle cx="1210" cy="28" r="14" fill="#1f2937"/><text x="1210" y="32" text-anchor="middle" font-size="12" fill="#9ca3af">↻</text>
  <circle cx="1240" cy="28" r="14" fill="#1f2937"/><text x="1240" y="32" text-anchor="middle" font-size="12" fill="#9ca3af">☾</text>

  <!-- KPI Row -->
  <g transform="translate(24, 80)">
    <!-- PnL -->
    <rect width="244" height="108" rx="10" fill="url(#profitCard)" stroke="#134e2b"/>
    <text x="16" y="24" font-size="11" fill="#6ee7b7">Total PnL (KRW)</text>
    <text x="16" y="60" font-size="26" font-weight="700" fill="#4ade80">+1,284,530</text>
    <text x="16" y="86" font-size="11" fill="#6ee7b7">▲ 실현 기준 누적</text>

    <!-- ROI -->
    <g transform="translate(260, 0)">
      <rect width="244" height="108" rx="10" fill="url(#accentCard)" stroke="#1e3a8a"/>
      <text x="16" y="24" font-size="11" fill="#93c5fd">ROI</text>
      <text x="16" y="60" font-size="26" font-weight="700" fill="#60a5fa">+12.84%</text>
      <text x="16" y="86" font-size="11" fill="#93c5fd">Win 58.3% · 실현 206건</text>
    </g>

    <!-- Balance -->
    <g transform="translate(520, 0)">
      <rect width="244" height="108" rx="10" fill="#111827" stroke="#1f2937"/>
      <text x="16" y="24" font-size="11" fill="#9ca3af">Balance ↻</text>
      <text x="16" y="54" font-size="20" font-weight="700" fill="#e5e7eb">9,284,530 원</text>
      <text x="16" y="76" font-size="11" fill="#6b7280">Available  1,284,000</text>
      <text x="16" y="94" font-size="11" fill="#6b7280">In Orders  8,000,530</text>
    </g>

    <!-- Active Scanners -->
    <g transform="translate(780, 0)">
      <rect width="244" height="108" rx="10" fill="#111827" stroke="#1f2937"/>
      <text x="16" y="24" font-size="11" fill="#9ca3af">Active Scanners</text>
      <g transform="translate(16,36)">
        <circle cx="6" cy="6" r="4" fill="#22c55e"/><text x="18" y="10" font-size="11" fill="#e5e7eb">TradingBot · LIVE</text>
        <circle cx="6" cy="24" r="4" fill="#22c55e"/><text x="18" y="28" font-size="11" fill="#e5e7eb">MorningRush · LIVE</text>
        <circle cx="6" cy="42" r="4" fill="#22c55e"/><text x="18" y="46" font-size="11" fill="#e5e7eb">Opening · LIVE</text>
        <circle cx="6" cy="60" r="4" fill="#22c55e"/><text x="18" y="64" font-size="11" fill="#e5e7eb">AllDay · LIVE</text>
      </g>
    </g>

    <!-- Capital -->
    <g transform="translate(1040, 0)">
      <rect width="192" height="108" rx="10" fill="#111827" stroke="#1f2937"/>
      <text x="16" y="24" font-size="11" fill="#9ca3af">Capital</text>
      <rect x="16" y="40" width="160" height="10" rx="5" fill="#1f2937"/>
      <rect x="16" y="40" width="112" height="10" rx="5" fill="#3b82f6"/>
      <text x="16" y="72" font-size="11" fill="#6b7280">Used</text>
      <text x="170" y="72" text-anchor="end" font-size="11" fill="#e5e7eb">70%</text>
      <text x="16" y="92" font-size="11" fill="#6b7280">Available</text>
      <text x="170" y="92" text-anchor="end" font-size="11" fill="#e5e7eb">30%</text>
    </g>
  </g>

  <!-- Chart Card -->
  <g transform="translate(24, 204)">
    <rect width="860" height="240" rx="10" fill="#111827" stroke="#1f2937"/>
    <text x="20" y="28" font-size="13" font-weight="600" fill="#e5e7eb">포트폴리오 성과</text>
    <g transform="translate(700, 14)">
      <rect width="30" height="22" rx="5" fill="#1f2937"/><text x="15" y="30" text-anchor="middle" font-size="10" fill="#9ca3af">1D</text>
      <rect x="34" width="30" height="22" rx="5" fill="#3b82f6"/><text x="49" y="30" text-anchor="middle" font-size="10" fill="#fff" font-weight="600">1W</text>
      <rect x="68" width="30" height="22" rx="5" fill="#1f2937"/><text x="83" y="30" text-anchor="middle" font-size="10" fill="#9ca3af">1M</text>
      <rect x="102" width="36" height="22" rx="5" fill="#1f2937"/><text x="120" y="30" text-anchor="middle" font-size="10" fill="#9ca3af">ALL</text>
    </g>
    <!-- Chart line -->
    <path d="M20 180 L80 170 L140 160 L200 150 L260 120 L320 130 L380 100 L440 95 L500 80 L560 90 L620 70 L680 60 L740 50 L800 45 L840 40" stroke="#22c55e" stroke-width="2" fill="none"/>
    <path d="M20 180 L80 170 L140 160 L200 150 L260 120 L320 130 L380 100 L440 95 L500 80 L560 90 L620 70 L680 60 L740 50 L800 45 L840 40 L840 220 L20 220 Z" fill="#22c55e" fill-opacity="0.08"/>
    <g font-size="9" fill="#4b5563">
      <text x="20" y="232">04/11</text><text x="200" y="232">04/13</text><text x="380" y="232">04/15</text><text x="560" y="232">04/16</text><text x="740" y="232">04/17</text><text x="840" y="232" text-anchor="end">04/18</text>
    </g>
  </g>

  <!-- Strategy panel -->
  <g transform="translate(900, 204)">
    <rect width="332" height="240" rx="10" fill="#111827" stroke="#1f2937"/>
    <text x="16" y="28" font-size="13" font-weight="600" fill="#e5e7eb">전략별 성과 TOP 5</text>
    <g transform="translate(16, 52)" font-size="11">
      <text y="0" fill="#e5e7eb">HighConfidenceBreakout</text><text x="300" y="0" text-anchor="end" fill="#4ade80" font-weight="700">+4.2%</text>
      <text y="32" fill="#e5e7eb">ScalpOpeningBreak</text><text x="300" y="32" text-anchor="end" fill="#4ade80" font-weight="700">+3.1%</text>
      <text y="64" fill="#e5e7eb">BullishEngulfingConfirm</text><text x="300" y="64" text-anchor="end" fill="#4ade80" font-weight="700">+2.4%</text>
      <text y="96" fill="#e5e7eb">MomentumFvgPullback</text><text x="300" y="96" text-anchor="end" fill="#4ade80" font-weight="700">+1.8%</text>
      <text y="128" fill="#e5e7eb">RegimeFilteredPullback</text><text x="300" y="128" text-anchor="end" fill="#f87171" font-weight="700">−0.6%</text>
    </g>
    <rect x="16" y="50" width="300" height="1" fill="#1f2937"/>
  </g>

  <!-- Positions table -->
  <g transform="translate(24, 460)">
    <rect width="1208" height="184" rx="10" fill="#111827" stroke="#1f2937"/>
    <rect x="0" y="0" width="1208" height="40" rx="10" fill="#0d1117"/>
    <text x="20" y="26" font-size="13" font-weight="600" fill="#e5e7eb">🟢 Open Positions · 4</text>
    <!-- columns -->
    <g transform="translate(20, 60)" font-size="10" fill="#6b7280">
      <text>Market</text><text x="150">Qty</text><text x="260">Avg Price</text><text x="380">Current</text><text x="500">PnL (KRW)</text><text x="640">ROI</text><text x="740">Peak</text><text x="850">Phase</text><text x="960">Scanner</text><text x="1100">Age</text>
    </g>
    <!-- Row 1 -->
    <g transform="translate(20, 92)" font-size="11" fill="#e5e7eb">
      <text>KRW-SOL</text><text x="150">12.48</text><text x="260">183,420</text><text x="380" fill="#4ade80">186,150</text><text x="500" fill="#4ade80">+34,040</text><text x="640" fill="#4ade80">+1.49%</text><text x="740" fill="#4ade80">+2.1%</text><text x="850">1st Done</text><text x="960">Opening</text><text x="1100">00:42:18</text>
    </g>
    <!-- Row 2 -->
    <g transform="translate(20, 120)" font-size="11" fill="#e5e7eb">
      <text>KRW-ADA</text><text x="150">5,200</text><text x="260">1,284</text><text x="380" fill="#4ade80">1,312</text><text x="500" fill="#4ade80">+145,600</text><text x="640" fill="#4ade80">+2.18%</text><text x="740" fill="#4ade80">+2.8%</text><text x="850">Armed</text><text x="960">MorningRush</text><text x="1100">02:15:04</text>
    </g>
    <!-- Row 3 -->
    <g transform="translate(20, 148)" font-size="11" fill="#e5e7eb">
      <text>KRW-AVAX</text><text x="150">3.12</text><text x="260">48,200</text><text x="380" fill="#f87171">47,600</text><text x="500" fill="#f87171">−1,870</text><text x="640" fill="#f87171">−0.12%</text><text x="740" fill="#9ca3af">+0.4%</text><text x="850">Initial</text><text x="960">AllDay</text><text x="1100">00:08:33</text>
    </g>
  </g>

  <!-- Caption -->
  <text x="640" y="708" text-anchor="middle" font-size="13" fill="#9ca3af" font-style="italic">대시보드 — KPI 카드(PnL/ROI/Balance/Active Scanners/Capital) + 포트폴리오 성과 차트 + 전략 TOP5 + 실시간 포지션</text>
</svg>
