<svg xmlns="http://www.w3.org/2000/svg" viewBox="0 0 1280 720" font-family="Inter, -apple-system, Segoe UI, sans-serif">
  <rect width="1280" height="720" fill="#0b0e14"/>
  <!-- Header -->
  <rect width="1280" height="56" fill="#0a0d12"/>
  <circle cx="32" cy="28" r="14" fill="#3b82f6"/><text x="32" y="34" text-anchor="middle" font-size="14" font-weight="700" fill="#fff">₿</text>
  <text x="56" y="34" font-size="14" font-weight="700" fill="#e5e7eb">Upbit AutoTrade</text>
  <text x="220" y="34" font-size="12" fill="#9ca3af">📊 대시보드</text>
  <rect x="280" y="16" width="72" height="28" rx="6" fill="#1e3a8a"/>
  <text x="316" y="34" text-anchor="middle" font-size="12" fill="#93c5fd" font-weight="600">⚙️ 설정</text>
  <text x="370" y="34" font-size="12" fill="#9ca3af">🧪 백테스트</text>

  <!-- Tab strip -->
  <g transform="translate(24, 80)">
    <rect width="1232" height="48" rx="10" fill="#111827" stroke="#1f2937"/>
    <g font-size="12" font-weight="600">
      <rect x="16" y="10" width="120" height="28" rx="6" fill="#1e40af"/>
      <text x="76" y="29" text-anchor="middle" fill="#dbeafe">🌐 글로벌</text>

      <rect x="148" y="10" width="120" height="28" rx="6" fill="#1f2937"/>
      <text x="208" y="29" text-anchor="middle" fill="#9ca3af">🎯 타겟 전략</text>

      <rect x="280" y="10" width="140" height="28" rx="6" fill="#1f2937"/>
      <text x="350" y="29" text-anchor="middle" fill="#9ca3af">🌅 모닝러쉬</text>

      <rect x="432" y="10" width="120" height="28" rx="6" fill="#1f2937"/>
      <text x="492" y="29" text-anchor="middle" fill="#9ca3af">⚡ 오프닝</text>

      <rect x="564" y="10" width="120" height="28" rx="6" fill="#1f2937"/>
      <text x="624" y="29" text-anchor="middle" fill="#9ca3af">🌞 올데이</text>

      <rect x="696" y="10" width="120" height="28" rx="6" fill="#1f2937"/>
      <text x="756" y="29" text-anchor="middle" fill="#9ca3af">🏷 마켓</text>

      <rect x="828" y="10" width="140" height="28" rx="6" fill="#1f2937"/>
      <text x="898" y="29" text-anchor="middle" fill="#9ca3af">🗂 전략그룹</text>

      <rect x="980" y="10" width="120" height="28" rx="6" fill="#1f2937"/>
      <text x="1040" y="29" text-anchor="middle" fill="#9ca3af">🔑 API 키</text>
    </g>
  </g>

  <!-- Section cards (preview) -->
  <g transform="translate(24, 148)">
    <!-- Card A -->
    <rect width="397" height="260" rx="10" fill="#111827" stroke="#1f2937"/>
    <rect width="397" height="40" rx="10" fill="#0d1117"/>
    <text x="20" y="26" font-size="13" font-weight="600" fill="#e5e7eb">🎮 봇 모드 / 자본금</text>
    <g transform="translate(20, 60)" font-size="11" fill="#9ca3af">
      <text>Mode</text>
      <rect x="0" y="12" width="100" height="28" rx="5" fill="#14532d" stroke="#22c55e"/>
      <text x="50" y="30" text-anchor="middle" fill="#4ade80" font-weight="700">LIVE</text>
      <rect x="108" y="12" width="100" height="28" rx="5" fill="#1f2937"/>
      <text x="158" y="30" text-anchor="middle" fill="#9ca3af">PAPER</text>
      <text y="72">자본금</text>
      <rect x="0" y="84" width="340" height="32" rx="5" fill="#0f1419" stroke="#2a3142"/>
      <text x="12" y="104" fill="#e5e7eb" font-size="13">10,000,000 KRW</text>
      <text y="140">기본 주문금액</text>
      <rect x="0" y="152" width="340" height="32" rx="5" fill="#0f1419" stroke="#2a3142"/>
      <text x="12" y="172" fill="#e5e7eb" font-size="13">30,000 KRW</text>
    </g>

    <!-- Card B -->
    <g transform="translate(417, 0)">
      <rect width="397" height="260" rx="10" fill="#111827" stroke="#1f2937"/>
      <rect width="397" height="40" rx="10" fill="#0d1117"/>
      <text x="20" y="26" font-size="13" font-weight="600" fill="#e5e7eb">🛡 리스크 관리</text>
      <g transform="translate(20, 60)" font-size="11">
        <text fill="#9ca3af">Global TP</text>
        <text x="340" text-anchor="end" fill="#4ade80" font-weight="700">+3.00%</text>
        <rect x="0" y="8" width="340" height="6" rx="3" fill="#1f2937"/>
        <rect x="0" y="8" width="180" height="6" rx="3" fill="#22c55e"/>

        <text y="40" fill="#9ca3af">Global SL</text>
        <text x="340" y="40" text-anchor="end" fill="#f87171" font-weight="700">−2.00%</text>
        <rect x="0" y="48" width="340" height="6" rx="3" fill="#1f2937"/>
        <rect x="0" y="48" width="120" height="6" rx="3" fill="#ef4444"/>

        <text y="80" fill="#9ca3af">Trailing Stop</text>
        <text x="340" y="80" text-anchor="end" fill="#93c5fd" font-weight="700">1.5%</text>

        <text y="112" fill="#9ca3af">Max Add Buys</text>
        <text x="340" y="112" text-anchor="end" fill="#e5e7eb" font-weight="700">2</text>

        <text y="144" fill="#9ca3af">Drawdown Gate</text>
        <text x="340" y="144" text-anchor="end" fill="#fbbf24" font-weight="700">−8% Block</text>

        <text y="176" fill="#9ca3af">Daily Loss Limit</text>
        <text x="340" y="176" text-anchor="end" fill="#fbbf24" font-weight="700">−4% Block</text>
      </g>
    </g>

    <!-- Card C -->
    <g transform="translate(834, 0)">
      <rect width="398" height="260" rx="10" fill="#111827" stroke="#1f2937"/>
      <rect width="398" height="40" rx="10" fill="#0d1117"/>
      <text x="20" y="26" font-size="13" font-weight="600" fill="#e5e7eb">⚡ 실행 정책</text>
      <g transform="translate(20, 60)" font-size="11" fill="#9ca3af">
        <text>Poll 주기</text><text x="340" text-anchor="end" fill="#e5e7eb" font-weight="600">5초</text>
        <text y="28">경계 스케줄러</text>
        <rect x="292" y="14" width="48" height="20" rx="10" fill="#22c55e"/>
        <circle cx="330" cy="24" r="8" fill="#fff"/>
        <text y="60">버퍼</text><text x="340" y="60" text-anchor="end" fill="#e5e7eb" font-weight="600">2초</text>
        <text y="88">재시도 횟수</text><text x="340" y="88" text-anchor="end" fill="#e5e7eb" font-weight="600">5회</text>
        <text y="116">TP/SL 티커</text>
        <rect x="292" y="102" width="48" height="20" rx="10" fill="#22c55e"/>
        <circle cx="330" cy="112" r="8" fill="#fff"/>
        <text y="148">Stale TTL</text><text x="340" y="148" text-anchor="end" fill="#e5e7eb" font-weight="600">120초</text>
        <text y="176">Catch-up Max</text><text x="340" y="176" text-anchor="end" fill="#e5e7eb" font-weight="600">3 candles</text>
      </g>
    </g>
  </g>

  <!-- Bottom preview: save bar -->
  <g transform="translate(24, 428)">
    <rect width="1232" height="56" rx="10" fill="#111827" stroke="#1f2937"/>
    <text x="20" y="35" font-size="12" fill="#fbbf24">⚠ 변경사항 3건 미저장</text>
    <rect x="1080" y="14" width="132" height="28" rx="6" fill="#2563eb"/>
    <text x="1146" y="33" text-anchor="middle" font-size="12" fill="#fff" font-weight="600">💾 저장하기</text>
    <rect x="1030" y="14" width="44" height="28" rx="6" fill="#1f2937"/>
    <text x="1052" y="33" text-anchor="middle" font-size="12" fill="#9ca3af">취소</text>
  </g>

  <g transform="translate(24, 504)">
    <rect width="1232" height="140" rx="10" fill="#111827" stroke="#1f2937"/>
    <text x="20" y="28" font-size="13" font-weight="600" fill="#e5e7eb">📖 최근 설정 변경 이력</text>
    <g transform="translate(20, 52)" font-size="11">
      <text fill="#6b7280">2026-04-18 09:12</text>
      <text x="140" fill="#e5e7eb">Global TP: 2.5% → 3.0%</text>
      <text x="400" fill="#4ade80">admin</text>

      <text y="24" fill="#6b7280">2026-04-17 22:05</text>
      <text x="140" y="24" fill="#e5e7eb">AllDay entry_end: 22:00 → 23:59</text>
      <text x="400" y="24" fill="#4ade80">admin · V120</text>

      <text y="48" fill="#6b7280">2026-04-17 20:18</text>
      <text x="140" y="48" fill="#e5e7eb">Opening split_1st_trail_drop: 0.50 → 0.40</text>
      <text x="400" y="48" fill="#4ade80">admin · V119</text>
    </g>
  </g>

  <text x="640" y="692" text-anchor="middle" font-size="13" fill="#9ca3af" font-style="italic">설정 화면 개요 — 8개 탭 구조, 글로벌 · 스캐너별 · 전략그룹 · 마켓 · API키를 분리 관리</text>
</svg>
