<svg xmlns="http://www.w3.org/2000/svg" viewBox="0 0 1280 720" font-family="Inter, -apple-system, Segoe UI, sans-serif">
  <rect width="1280" height="720" fill="#0b0e14"/>
  <!-- Header -->
  <rect width="1280" height="56" fill="#0a0d12"/>
  <circle cx="32" cy="28" r="14" fill="#3b82f6"/><text x="32" y="34" text-anchor="middle" font-size="14" font-weight="700" fill="#fff">₿</text>
  <text x="56" y="34" font-size="14" font-weight="700" fill="#e5e7eb">Upbit AutoTrade</text>
  <text x="220" y="34" font-size="12" fill="#9ca3af">📊 대시보드</text>
  <rect x="280" y="16" width="72" height="28" rx="6" fill="#1e3a8a"/><text x="316" y="34" text-anchor="middle" font-size="12" fill="#93c5fd" font-weight="600">⚙️ 설정</text>

  <!-- Tab strip -->
  <g transform="translate(24,80)">
    <rect width="1232" height="40" rx="10" fill="#111827" stroke="#1f2937"/>
    <rect x="10" y="8" width="100" height="24" rx="5" fill="#1e40af"/><text x="60" y="25" text-anchor="middle" font-size="11" fill="#dbeafe" font-weight="600">🌐 글로벌</text>
    <text x="140" y="25" font-size="11" fill="#9ca3af">🎯 타겟전략</text>
    <text x="230" y="25" font-size="11" fill="#9ca3af">🌅 모닝러쉬</text>
    <text x="330" y="25" font-size="11" fill="#9ca3af">⚡ 오프닝</text>
    <text x="410" y="25" font-size="11" fill="#9ca3af">🌞 올데이</text>
    <text x="490" y="25" font-size="11" fill="#9ca3af">🏷 마켓</text>
    <text x="560" y="25" font-size="11" fill="#9ca3af">🗂 전략그룹</text>
    <text x="660" y="25" font-size="11" fill="#9ca3af">🔑 API 키</text>
  </g>

  <!-- LEFT COLUMN: Mode + Capital -->
  <g transform="translate(24,140)">
    <rect width="608" height="264" rx="10" fill="#111827" stroke="#1f2937"/>
    <rect width="608" height="40" rx="10" fill="#0d1117"/>
    <text x="20" y="26" font-size="13" font-weight="600" fill="#e5e7eb">🎮 실행 모드 / 자본금</text>
    <g transform="translate(20,64)">
      <text font-size="11" fill="#9ca3af">Mode</text>
      <rect x="0" y="12" width="110" height="34" rx="6" fill="#14532d" stroke="#22c55e" stroke-width="1.5"/>
      <text x="55" y="34" text-anchor="middle" font-size="13" fill="#4ade80" font-weight="700">● LIVE</text>
      <rect x="120" y="12" width="110" height="34" rx="6" fill="#1f2937" stroke="#374151"/>
      <text x="175" y="34" text-anchor="middle" font-size="13" fill="#6b7280">PAPER</text>

      <text y="78" font-size="11" fill="#9ca3af">자본금 (KRW)</text>
      <rect x="0" y="90" width="560" height="36" rx="6" fill="#0f1419" stroke="#2a3142"/>
      <text x="14" y="113" font-size="14" fill="#e5e7eb" font-weight="600">10,000,000</text>
      <text x="550" y="113" text-anchor="end" font-size="11" fill="#6b7280">KRW</text>

      <text y="152" font-size="11" fill="#9ca3af">Global Base Order (기본 주문금액)</text>
      <rect x="0" y="164" width="270" height="36" rx="6" fill="#0f1419" stroke="#2a3142"/>
      <text x="14" y="187" font-size="14" fill="#e5e7eb" font-weight="600">30,000</text>
      <text y="152" x="290" font-size="11" fill="#9ca3af">Min Order (최소)</text>
      <rect x="290" y="164" width="270" height="36" rx="6" fill="#0f1419" stroke="#2a3142"/>
      <text x="304" y="187" font-size="14" fill="#e5e7eb" font-weight="600">5,000</text>
    </g>
  </g>

  <!-- RIGHT COLUMN: Risk -->
  <g transform="translate(648,140)">
    <rect width="608" height="264" rx="10" fill="#111827" stroke="#1f2937"/>
    <rect width="608" height="40" rx="10" fill="#0d1117"/>
    <text x="20" y="26" font-size="13" font-weight="600" fill="#e5e7eb">🛡 리스크 관리 (Global)</text>

    <g transform="translate(20,60)" font-size="11">
      <text fill="#9ca3af">TP (익절) %</text>
      <rect x="0" y="12" width="260" height="34" rx="6" fill="#0f1419" stroke="#2a3142"/>
      <text x="14" y="34" fill="#4ade80" font-weight="700" font-size="14">+3.00</text>
      <text x="245" y="34" text-anchor="end" fill="#6b7280">%</text>

      <text y="0" x="300" fill="#9ca3af">SL (손절) %</text>
      <rect x="300" y="12" width="260" height="34" rx="6" fill="#0f1419" stroke="#2a3142"/>
      <text x="314" y="34" fill="#f87171" font-weight="700" font-size="14">−2.00</text>
      <text x="545" y="34" text-anchor="end" fill="#6b7280">%</text>

      <text y="64" fill="#9ca3af">Trailing Drop %</text>
      <rect x="0" y="76" width="260" height="34" rx="6" fill="#0f1419" stroke="#2a3142"/>
      <text x="14" y="98" fill="#93c5fd" font-weight="700" font-size="14">1.50</text>

      <text y="64" x="300" fill="#9ca3af">Max Add Buys</text>
      <rect x="300" y="76" width="260" height="34" rx="6" fill="#0f1419" stroke="#2a3142"/>
      <text x="314" y="98" fill="#e5e7eb" font-weight="700" font-size="14">2</text>

      <text y="128" fill="#9ca3af">Drawdown Gate</text>
      <rect x="0" y="140" width="260" height="34" rx="6" fill="#0f1419" stroke="#2a3142"/>
      <text x="14" y="162" fill="#fbbf24" font-weight="700" font-size="14">−8.0</text>
      <text x="245" y="162" text-anchor="end" fill="#6b7280">%</text>

      <text y="128" x="300" fill="#9ca3af">Daily Loss Limit</text>
      <rect x="300" y="140" width="260" height="34" rx="6" fill="#0f1419" stroke="#2a3142"/>
      <text x="314" y="162" fill="#fbbf24" font-weight="700" font-size="14">−4.0</text>
      <text x="545" y="162" text-anchor="end" fill="#6b7280">%</text>
    </g>
  </g>

  <!-- BOTTOM ROW: Execution + TP/SL Ticker -->
  <g transform="translate(24,420)">
    <rect width="608" height="224" rx="10" fill="#111827" stroke="#1f2937"/>
    <rect width="608" height="40" rx="10" fill="#0d1117"/>
    <text x="20" y="26" font-size="13" font-weight="600" fill="#e5e7eb">⚡ 실행 정책 / 경계 스케줄러</text>
    <g transform="translate(20,60)" font-size="11" fill="#9ca3af">
      <text>Poll 주기</text><rect x="120" y="-12" width="80" height="24" rx="5" fill="#0f1419" stroke="#2a3142"/><text x="160" y="5" text-anchor="middle" fill="#e5e7eb" font-weight="600">5 s</text>
      <text x="230">경계 스케줄러</text><rect x="332" y="-12" width="48" height="24" rx="12" fill="#22c55e"/><circle cx="368" cy="0" r="9" fill="#fff"/>
      <text x="400">버퍼</text><rect x="440" y="-12" width="60" height="24" rx="5" fill="#0f1419" stroke="#2a3142"/><text x="470" y="5" text-anchor="middle" fill="#e5e7eb" font-weight="600">2 s</text>

      <text y="40">재시도 횟수</text><rect x="120" y="28" width="80" height="24" rx="5" fill="#0f1419" stroke="#2a3142"/><text x="160" y="45" text-anchor="middle" fill="#e5e7eb" font-weight="600">5</text>
      <text y="40" x="230">Catch-up</text><rect x="332" y="28" width="80" height="24" rx="5" fill="#0f1419" stroke="#2a3142"/><text x="372" y="45" text-anchor="middle" fill="#e5e7eb" font-weight="600">3</text>
      <text y="40" x="440">Stale TTL</text><rect x="500" y="28" width="68" height="24" rx="5" fill="#0f1419" stroke="#2a3142"/><text x="534" y="45" text-anchor="middle" fill="#e5e7eb" font-weight="600">120s</text>

      <text y="88">TP/SL Ticker</text><rect x="120" y="76" width="48" height="24" rx="12" fill="#22c55e"/><circle cx="156" cy="88" r="9" fill="#fff"/>
      <text x="180" y="88">간격</text><rect x="220" y="76" width="68" height="24" rx="5" fill="#0f1419" stroke="#2a3142"/><text x="254" y="93" text-anchor="middle" fill="#e5e7eb" font-weight="600">15s</text>
      <text y="88" x="310">Strategy Lock</text><rect x="420" y="76" width="48" height="24" rx="12" fill="#22c55e"/><circle cx="456" cy="88" r="9" fill="#fff"/>

      <text y="130" fill="#6b7280" font-style="italic">※ 틱은 캔들 종가 시점에 정확히 맞춰 실행 (최대 5회 재시도)</text>
    </g>
  </g>

  <g transform="translate(648,420)">
    <rect width="608" height="224" rx="10" fill="#111827" stroke="#1f2937"/>
    <rect width="608" height="40" rx="10" fill="#0d1117"/>
    <text x="20" y="26" font-size="13" font-weight="600" fill="#e5e7eb">📋 전략 체크박스 (21개)</text>
    <g transform="translate(20,58)" font-size="10">
      <g fill="#e5e7eb">
        <rect x="0" y="0" width="12" height="12" rx="2" fill="#22c55e"/><path d="M2 6 L5 9 L10 3" stroke="#fff" stroke-width="1.5" fill="none"/>
        <text x="18" y="10">HighConfidenceBreakout</text>
      </g>
      <g fill="#e5e7eb" transform="translate(190,0)">
        <rect width="12" height="12" rx="2" fill="#22c55e"/><path d="M2 6 L5 9 L10 3" stroke="#fff" stroke-width="1.5" fill="none"/>
        <text x="18" y="10">ScalpOpeningBreak</text>
      </g>
      <g fill="#e5e7eb" transform="translate(380,0)">
        <rect width="12" height="12" rx="2" fill="#22c55e"/><path d="M2 6 L5 9 L10 3" stroke="#fff" stroke-width="1.5" fill="none"/>
        <text x="18" y="10">BullishEngulfingConfirm</text>
      </g>

      <g fill="#e5e7eb" transform="translate(0,24)">
        <rect width="12" height="12" rx="2" fill="#22c55e"/><path d="M2 6 L5 9 L10 3" stroke="#fff" stroke-width="1.5" fill="none"/>
        <text x="18" y="10">MomentumFvgPullback</text>
      </g>
      <g fill="#e5e7eb" transform="translate(190,24)">
        <rect width="12" height="12" rx="2" fill="#22c55e"/><path d="M2 6 L5 9 L10 3" stroke="#fff" stroke-width="1.5" fill="none"/>
        <text x="18" y="10">BullishPinbarOrderblock</text>
      </g>
      <g fill="#e5e7eb" transform="translate(380,24)">
        <rect width="12" height="12" rx="2" fill="#22c55e"/><path d="M2 6 L5 9 L10 3" stroke="#fff" stroke-width="1.5" fill="none"/>
        <text x="18" y="10">InsideBarBreakout</text>
      </g>

      <g fill="#e5e7eb" transform="translate(0,48)">
        <rect width="12" height="12" rx="2" fill="#22c55e"/><path d="M2 6 L5 9 L10 3" stroke="#fff" stroke-width="1.5" fill="none"/>
        <text x="18" y="10">RegimeFilteredPullback</text>
      </g>
      <g fill="#e5e7eb" transform="translate(190,48)">
        <rect width="12" height="12" rx="2" fill="#22c55e"/><path d="M2 6 L5 9 L10 3" stroke="#fff" stroke-width="1.5" fill="none"/>
        <text x="18" y="10">AdaptiveTrendMomentum</text>
      </g>
      <g fill="#e5e7eb" transform="translate(380,48)">
        <rect width="12" height="12" rx="2" fill="#1f2937" stroke="#374151"/>
        <text x="18" y="10" fill="#6b7280">EmaRsiTrend</text>
      </g>

      <g fill="#e5e7eb" transform="translate(0,72)">
        <rect width="12" height="12" rx="2" fill="#22c55e"/><path d="M2 6 L5 9 L10 3" stroke="#fff" stroke-width="1.5" fill="none"/>
        <text x="18" y="10">MorningStar</text>
      </g>
      <g fill="#e5e7eb" transform="translate(190,72)">
        <rect width="12" height="12" rx="2" fill="#22c55e"/><path d="M2 6 L5 9 L10 3" stroke="#fff" stroke-width="1.5" fill="none"/>
        <text x="18" y="10">EveningStarSell</text>
      </g>
      <g fill="#e5e7eb" transform="translate(380,72)">
        <rect width="12" height="12" rx="2" fill="#22c55e"/><path d="M2 6 L5 9 L10 3" stroke="#fff" stroke-width="1.5" fill="none"/>
        <text x="18" y="10">BearishEngulfing</text>
      </g>

      <g fill="#e5e7eb" transform="translate(0,96)">
        <rect width="12" height="12" rx="2" fill="#1f2937" stroke="#374151"/>
        <text x="18" y="10" fill="#6b7280">ScalpRsiBounce</text>
      </g>
      <g fill="#e5e7eb" transform="translate(190,96)">
        <rect width="12" height="12" rx="2" fill="#22c55e"/><path d="M2 6 L5 9 L10 3" stroke="#fff" stroke-width="1.5" fill="none"/>
        <text x="18" y="10">ScalpEmaPullback</text>
      </g>
      <g fill="#e5e7eb" transform="translate(380,96)">
        <rect width="12" height="12" rx="2" fill="#1f2937" stroke="#374151"/>
        <text x="18" y="10" fill="#6b7280">ScalpBreakoutRange</text>
      </g>

      <text y="140" fill="#9ca3af" font-style="italic">※ 우선순위: SELL › ADD_BUY › BUY · DEPRECATED 5개 숨김</text>
    </g>
  </g>

  <text x="640" y="700" text-anchor="middle" font-size="13" fill="#9ca3af" font-style="italic">글로벌 설정 — Mode · 자본금 · 리스크(TP/SL/DD) · 실행정책 · 전략 21개 체크박스</text>
</svg>
