<svg xmlns="http://www.w3.org/2000/svg" viewBox="0 0 1280 760" font-family="Inter, -apple-system, Segoe UI, sans-serif">
  <rect width="1280" height="760" fill="#0b0e14"/>
  <rect width="1280" height="56" fill="#0a0d12"/>
  <circle cx="32" cy="28" r="14" fill="#3b82f6"/><text x="32" y="34" text-anchor="middle" font-size="14" font-weight="700" fill="#fff">₿</text>
  <text x="56" y="34" font-size="14" font-weight="700" fill="#e5e7eb">Upbit AutoTrade</text>

  <!-- Tabs -->
  <g transform="translate(24,80)">
    <rect width="1232" height="40" rx="10" fill="#111827" stroke="#1f2937"/>
    <text x="24" y="25" font-size="11" fill="#9ca3af">🌐 글로벌</text>
    <text x="120" y="25" font-size="11" fill="#9ca3af">🎯 타겟</text>
    <rect x="180" y="8" width="110" height="24" rx="5" fill="#1e40af"/>
    <text x="235" y="25" text-anchor="middle" font-size="11" fill="#dbeafe" font-weight="600">🌅 모닝러쉬</text>
    <rect x="300" y="8" width="100" height="24" rx="5" fill="#064e3b"/>
    <text x="350" y="25" text-anchor="middle" font-size="11" fill="#6ee7b7" font-weight="600">⚡ 오프닝</text>
    <rect x="410" y="8" width="100" height="24" rx="5" fill="#713f12"/>
    <text x="460" y="25" text-anchor="middle" font-size="11" fill="#fcd34d" font-weight="600">🌞 올데이</text>
  </g>

  <!-- MorningRush card -->
  <g transform="translate(24,140)">
    <rect width="608" height="284" rx="10" fill="#111827" stroke="#1e40af"/>
    <rect width="608" height="40" rx="10" fill="#1e3a8a"/>
    <text x="20" y="26" font-size="14" font-weight="700" fill="#dbeafe">🌅 MorningRush Scanner</text>
    <text x="590" y="26" text-anchor="end" font-size="11" fill="#93c5fd">09:00 ~ 09:04:59 KST · 5분</text>

    <g transform="translate(20,60)" font-size="11">
      <text fill="#9ca3af">Range</text>
      <rect x="80" y="-12" width="60" height="24" rx="5" fill="#0f1419" stroke="#2a3142"/><text x="110" y="5" text-anchor="middle" fill="#e5e7eb" font-weight="600">08:50</text>
      <text x="150" y="3" fill="#6b7280">→</text>
      <rect x="170" y="-12" width="60" height="24" rx="5" fill="#0f1419" stroke="#2a3142"/><text x="200" y="5" text-anchor="middle" fill="#e5e7eb" font-weight="600">09:00</text>

      <text y="28">Entry</text>
      <rect x="80" y="16" width="60" height="24" rx="5" fill="#0f1419" stroke="#2a3142"/><text x="110" y="33" text-anchor="middle" fill="#4ade80" font-weight="600">09:00</text>
      <text x="150" y="31" fill="#6b7280">→</text>
      <rect x="170" y="16" width="60" height="24" rx="5" fill="#0f1419" stroke="#2a3142"/><text x="200" y="33" text-anchor="middle" fill="#4ade80" font-weight="600">09:05</text>

      <text y="56">Session End</text>
      <rect x="80" y="44" width="60" height="24" rx="5" fill="#0f1419" stroke="#2a3142"/><text x="110" y="61" text-anchor="middle" fill="#fbbf24" font-weight="600">10:00</text>

      <!-- Right column -->
      <text x="280" fill="#9ca3af">TP / SL</text>
      <rect x="350" y="-12" width="60" height="24" rx="5" fill="#0f1419" stroke="#2a3142"/><text x="380" y="5" text-anchor="middle" fill="#4ade80" font-weight="600">+2.5%</text>
      <rect x="420" y="-12" width="60" height="24" rx="5" fill="#0f1419" stroke="#2a3142"/><text x="450" y="5" text-anchor="middle" fill="#f87171" font-weight="600">−2.5%</text>

      <text x="280" y="28" fill="#9ca3af">Trail Drop</text>
      <rect x="350" y="16" width="60" height="24" rx="5" fill="#0f1419" stroke="#2a3142"/><text x="380" y="33" text-anchor="middle" fill="#93c5fd" font-weight="600">1.20%</text>

      <text x="280" y="56" fill="#9ca3af">1st Trail Drop</text>
      <rect x="350" y="44" width="60" height="24" rx="5" fill="#0f1419" stroke="#2a3142"/><text x="380" y="61" text-anchor="middle" fill="#93c5fd" font-weight="600">0.50%</text>

      <text x="280" y="84" fill="#9ca3af">Split Ratio</text>
      <rect x="350" y="72" width="100" height="24" rx="5" fill="#0f1419" stroke="#2a3142"/><text x="400" y="89" text-anchor="middle" fill="#e5e7eb" font-weight="600">50 / 50</text>

      <!-- TOP-N -->
      <text y="120" fill="#9ca3af">TOP-N</text>
      <rect x="80" y="108" width="60" height="24" rx="5" fill="#0f1419" stroke="#2a3142"/><text x="110" y="125" text-anchor="middle" fill="#e5e7eb" font-weight="600">10</text>
      <text x="150" y="125" fill="#6b7280">거래량 상위</text>

      <text y="150" fill="#9ca3af">BTC Filter</text>
      <rect x="80" y="136" width="48" height="24" rx="12" fill="#22c55e"/><circle cx="116" cy="148" r="9" fill="#fff"/>
      <text x="140" y="152" fill="#e5e7eb">EMA20 하회 시 차단</text>

      <text y="180" fill="#9ca3af">Fixed TP</text>
      <rect x="80" y="166" width="48" height="24" rx="12" fill="#374151"/><circle cx="92" cy="178" r="9" fill="#6b7280"/>
      <text x="140" y="182" fill="#6b7280">제거됨 (TRAIL 통합)</text>
    </g>
  </g>

  <!-- Opening card -->
  <g transform="translate(648,140)">
    <rect width="608" height="284" rx="10" fill="#111827" stroke="#064e3b"/>
    <rect width="608" height="40" rx="10" fill="#064e3b"/>
    <text x="20" y="26" font-size="14" font-weight="700" fill="#6ee7b7">⚡ Opening Scanner</text>
    <text x="590" y="26" text-anchor="end" font-size="11" fill="#34d399">09:05 ~ 10:04:59 KST · 1h</text>

    <g transform="translate(20,60)" font-size="11">
      <text fill="#9ca3af">Range</text>
      <rect x="80" y="-12" width="60" height="24" rx="5" fill="#0f1419" stroke="#2a3142"/><text x="110" y="5" text-anchor="middle" fill="#e5e7eb" font-weight="600">08:00</text>
      <text x="150" y="3" fill="#6b7280">→</text>
      <rect x="170" y="-12" width="60" height="24" rx="5" fill="#0f1419" stroke="#2a3142"/><text x="200" y="5" text-anchor="middle" fill="#e5e7eb" font-weight="600">08:59</text>

      <text y="28">Entry</text>
      <rect x="80" y="16" width="60" height="24" rx="5" fill="#0f1419" stroke="#2a3142"/><text x="110" y="33" text-anchor="middle" fill="#4ade80" font-weight="600">09:05</text>
      <text x="150" y="31" fill="#6b7280">→</text>
      <rect x="170" y="16" width="60" height="24" rx="5" fill="#0f1419" stroke="#2a3142"/><text x="200" y="33" text-anchor="middle" fill="#4ade80" font-weight="600">10:04</text>

      <text y="56">Session End</text>
      <rect x="80" y="44" width="60" height="24" rx="5" fill="#0f1419" stroke="#2a3142"/><text x="110" y="61" text-anchor="middle" fill="#fbbf24" font-weight="600">12:00</text>

      <text x="280" fill="#9ca3af">TP / SL</text>
      <rect x="350" y="-12" width="60" height="24" rx="5" fill="#0f1419" stroke="#2a3142"/><text x="380" y="5" text-anchor="middle" fill="#4ade80" font-weight="600">+2.5%</text>
      <rect x="420" y="-12" width="60" height="24" rx="5" fill="#0f1419" stroke="#2a3142"/><text x="450" y="5" text-anchor="middle" fill="#f87171" font-weight="600">−2.5%</text>

      <text x="280" y="28" fill="#9ca3af">Trail Drop</text>
      <rect x="350" y="16" width="60" height="24" rx="5" fill="#0f1419" stroke="#2a3142"/><text x="380" y="33" text-anchor="middle" fill="#93c5fd" font-weight="600">1.00%</text>

      <text x="280" y="56" fill="#9ca3af">1st Trail Drop</text>
      <rect x="350" y="44" width="60" height="24" rx="5" fill="#0f1419" stroke="#2a3142"/><text x="380" y="61" text-anchor="middle" fill="#93c5fd" font-weight="600">0.40%</text>

      <text x="280" y="84" fill="#9ca3af">Quick TP</text>
      <rect x="350" y="72" width="48" height="24" rx="12" fill="#22c55e"/><circle cx="386" cy="84" r="9" fill="#fff"/>
      <text x="410" y="88" fill="#e5e7eb">+0.70%</text>

      <text y="120" fill="#9ca3af">TOP-N</text>
      <rect x="80" y="108" width="60" height="24" rx="5" fill="#0f1419" stroke="#2a3142"/><text x="110" y="125" text-anchor="middle" fill="#e5e7eb" font-weight="600">15</text>
      <text y="150" fill="#9ca3af">Min Score</text>
      <rect x="80" y="136" width="60" height="24" rx="5" fill="#0f1419" stroke="#2a3142"/><text x="110" y="153" text-anchor="middle" fill="#e5e7eb" font-weight="600">7.0</text>
      <text y="180" fill="#9ca3af">병렬 Fetch</text>
      <rect x="80" y="166" width="48" height="24" rx="12" fill="#22c55e"/><circle cx="116" cy="178" r="9" fill="#fff"/>
      <text x="140" y="182" fill="#6b7280">≤8 cores</text>
    </g>
  </g>

  <!-- AllDay card -->
  <g transform="translate(24,440)">
    <rect width="1232" height="240" rx="10" fill="#111827" stroke="#713f12"/>
    <rect width="1232" height="40" rx="10" fill="#713f12"/>
    <text x="20" y="26" font-size="14" font-weight="700" fill="#fcd34d">🌞 AllDay Scanner</text>
    <text x="1212" y="26" text-anchor="end" font-size="11" fill="#fbbf24">10:05 ~ 23:59:59 KST · ~14h · Overnight Session (익일 08:59)</text>

    <g transform="translate(20,60)" font-size="11">
      <text fill="#9ca3af">Entry</text>
      <rect x="60" y="-12" width="60" height="24" rx="5" fill="#0f1419" stroke="#2a3142"/><text x="90" y="5" text-anchor="middle" fill="#4ade80" font-weight="600">10:05</text>
      <text x="130" y="3" fill="#6b7280">→</text>
      <rect x="150" y="-12" width="60" height="24" rx="5" fill="#0f1419" stroke="#2a3142"/><text x="180" y="5" text-anchor="middle" fill="#4ade80" font-weight="600">23:59</text>

      <text x="260" fill="#9ca3af">Session End</text>
      <rect x="340" y="-12" width="100" height="24" rx="5" fill="#1e1b3a" stroke="#6366f1"/><text x="390" y="5" text-anchor="middle" fill="#a5b4fc" font-weight="700">익일 08:59</text>
      <text x="450" y="3" font-size="10" fill="#8b5cf6">※ Overnight 분기</text>

      <text x="650" fill="#9ca3af">TP / SL</text>
      <rect x="720" y="-12" width="60" height="24" rx="5" fill="#0f1419" stroke="#2a3142"/><text x="750" y="5" text-anchor="middle" fill="#4ade80" font-weight="600">+2.5%</text>
      <rect x="790" y="-12" width="60" height="24" rx="5" fill="#0f1419" stroke="#2a3142"/><text x="820" y="5" text-anchor="middle" fill="#f87171" font-weight="600">−1.5%</text>

      <text x="880" fill="#9ca3af">Trail Drop</text>
      <rect x="960" y="-12" width="60" height="24" rx="5" fill="#0f1419" stroke="#2a3142"/><text x="990" y="5" text-anchor="middle" fill="#93c5fd" font-weight="600">1.50%</text>

      <text x="1040" fill="#9ca3af">1st Drop</text>
      <rect x="1110" y="-12" width="60" height="24" rx="5" fill="#0f1419" stroke="#2a3142"/><text x="1140" y="5" text-anchor="middle" fill="#93c5fd" font-weight="600">0.70%</text>

      <!-- Row 2 -->
      <text y="40" fill="#9ca3af">Min Confidence</text>
      <rect x="120" y="28" width="60" height="24" rx="5" fill="#0f1419" stroke="#2a3142"/><text x="150" y="45" text-anchor="middle" fill="#fcd34d" font-weight="700">9.4</text>

      <text y="40" x="260" fill="#9ca3af">Time Stop</text>
      <rect x="340" y="28" width="100" height="24" rx="5" fill="#0f1419" stroke="#2a3142"/><text x="390" y="45" text-anchor="middle" fill="#e5e7eb" font-weight="600">12 candles</text>

      <text y="40" x="480" fill="#9ca3af">Tiered SL</text>
      <rect x="560" y="28" width="48" height="24" rx="12" fill="#22c55e"/><circle cx="596" cy="40" r="9" fill="#fff"/>

      <text y="40" x="650" fill="#9ca3af">Range SL (2연속)</text>
      <rect x="770" y="28" width="48" height="24" rx="12" fill="#22c55e"/><circle cx="806" cy="40" r="9" fill="#fff"/>

      <text y="40" x="880" fill="#9ca3af">Quick TP</text>
      <rect x="960" y="28" width="48" height="24" rx="12" fill="#374151"/><circle cx="972" cy="40" r="9" fill="#6b7280"/>
      <text y="40" x="1016" fill="#6b7280">제거</text>

      <!-- Info panel -->
      <rect x="0" y="68" width="1192" height="72" rx="6" fill="#1e1b3a" stroke="#4c1d95"/>
      <text x="14" y="88" font-size="11" fill="#a5b4fc" font-weight="700">💡 Overnight Session 설계</text>
      <text x="14" y="108" font-size="11" fill="#c4b5fd">session_end=08:59 은 익일 08:59 를 의미 (isOvernightSession = sessionEnd &lt; 12:00 분기 활성)</text>
      <text x="14" y="124" font-size="11" fill="#c4b5fd">23:58 매수 → 23:59 캔들에서 즉시 HC_SESSION_END 강제청산되는 1분 수명 문제 회피</text>
    </g>
  </g>

  <text x="640" y="740" text-anchor="middle" font-size="13" fill="#9ca3af" font-style="italic">스캐너별 독립 설정 — 시간대/TP/SL/Trail/Split/TOP-N 을 스캐너마다 개별 튜닝</text>
</svg>
