<svg xmlns="http://www.w3.org/2000/svg" viewBox="0 0 1280 720" font-family="Inter, -apple-system, Segoe UI, sans-serif">
  <rect width="1280" height="720" fill="#0b0e14"/>
  <rect width="1280" height="56" fill="#0a0d12"/>
  <circle cx="32" cy="28" r="14" fill="#3b82f6"/><text x="32" y="34" text-anchor="middle" font-size="14" font-weight="700" fill="#fff">₿</text>
  <text x="56" y="34" font-size="14" font-weight="700" fill="#e5e7eb">Upbit AutoTrade</text>

  <!-- Tabs -->
  <g transform="translate(24,80)">
    <rect width="1232" height="40" rx="10" fill="#111827" stroke="#1f2937"/>
    <text x="24" y="25" font-size="11" fill="#9ca3af">🌐 글로벌</text>
    <text x="100" y="25" font-size="11" fill="#9ca3af">🎯 타겟</text>
    <text x="170" y="25" font-size="11" fill="#9ca3af">🌅 모닝러쉬</text>
    <text x="270" y="25" font-size="11" fill="#9ca3af">⚡ 오프닝</text>
    <text x="360" y="25" font-size="11" fill="#9ca3af">🌞 올데이</text>
    <text x="440" y="25" font-size="11" fill="#9ca3af">🏷 마켓</text>
    <rect x="500" y="8" width="120" height="24" rx="5" fill="#1e40af"/>
    <text x="560" y="25" text-anchor="middle" font-size="11" fill="#dbeafe" font-weight="600">🗂 전략그룹</text>
    <text x="640" y="25" font-size="11" fill="#9ca3af">🔑 API 키</text>
  </g>

  <!-- Toolbar -->
  <g transform="translate(24,140)">
    <rect width="1232" height="48" rx="10" fill="#111827" stroke="#1f2937"/>
    <text x="16" y="30" font-size="13" fill="#e5e7eb">그룹 수: <tspan fill="#93c5fd" font-weight="700">4</tspan></text>
    <text x="120" y="30" font-size="13" fill="#e5e7eb">활성: <tspan fill="#4ade80" font-weight="700">3</tspan></text>
    <rect x="1088" y="10" width="130" height="28" rx="6" fill="#2563eb"/>
    <text x="1153" y="29" text-anchor="middle" font-size="12" fill="#fff" font-weight="600">＋ 그룹 추가</text>
  </g>

  <!-- Group card 1 -->
  <g transform="translate(24,204)">
    <rect width="608" height="224" rx="10" fill="#111827" stroke="#1e3a8a"/>
    <rect width="608" height="36" rx="10" fill="#1e3a8a"/>
    <rect x="14" y="8" width="10" height="20" rx="2" fill="#60a5fa"/>
    <text x="34" y="23" font-size="13" font-weight="700" fill="#dbeafe">🚀 Major Coins</text>
    <rect x="540" y="8" width="56" height="20" rx="10" fill="#14532d"/>
    <text x="568" y="23" text-anchor="middle" font-size="10" fill="#4ade80" font-weight="700">ACTIVE</text>

    <g transform="translate(16,56)" font-size="11">
      <text fill="#9ca3af">마켓셋</text>
      <g transform="translate(0,10)">
        <rect width="70" height="22" rx="10" fill="#1e3a8a"/><text x="35" y="15" text-anchor="middle" fill="#93c5fd">KRW-BTC</text>
        <rect x="76" width="74" height="22" rx="10" fill="#1e3a8a"/><text x="113" y="15" text-anchor="middle" fill="#93c5fd">KRW-ETH</text>
        <rect x="156" width="78" height="22" rx="10" fill="#1e3a8a"/><text x="195" y="15" text-anchor="middle" fill="#93c5fd">KRW-SOL</text>
        <rect x="240" width="78" height="22" rx="10" fill="#1e3a8a"/><text x="279" y="15" text-anchor="middle" fill="#93c5fd">KRW-XRP</text>
      </g>

      <text y="62" fill="#9ca3af">TP / SL</text>
      <rect x="100" y="48" width="60" height="24" rx="5" fill="#0f1419" stroke="#2a3142"/><text x="130" y="65" text-anchor="middle" fill="#4ade80" font-weight="600">+2.0%</text>
      <rect x="168" y="48" width="60" height="24" rx="5" fill="#0f1419" stroke="#2a3142"/><text x="198" y="65" text-anchor="middle" fill="#f87171" font-weight="600">−1.5%</text>

      <text y="62" x="280" fill="#9ca3af">Order KRW</text>
      <rect x="370" y="48" width="100" height="24" rx="5" fill="#0f1419" stroke="#2a3142"/><text x="420" y="65" text-anchor="middle" fill="#e5e7eb" font-weight="600">50,000</text>

      <text y="62" x="490" fill="#9ca3af">Max Add</text>
      <rect x="560" y="48" width="30" height="24" rx="5" fill="#0f1419" stroke="#2a3142"/><text x="575" y="65" text-anchor="middle" fill="#e5e7eb" font-weight="600">1</text>

      <text y="102" fill="#9ca3af">Strategy Override</text>
      <rect x="120" y="90" width="160" height="22" rx="10" fill="#14532d"/><text x="200" y="105" text-anchor="middle" fill="#4ade80" font-size="10" font-weight="700">RegimeFilteredPullback</text>
      <rect x="284" y="90" width="140" height="22" rx="10" fill="#14532d"/><text x="354" y="105" text-anchor="middle" fill="#4ade80" font-size="10" font-weight="700">AdaptiveTrend</text>

      <text y="140" fill="#6b7280" font-size="10" font-style="italic">※ 글로벌 TP/SL 을 마켓셋별로 오버라이드 (Major 코인은 타이트)</text>
    </g>
  </g>

  <!-- Group card 2 -->
  <g transform="translate(648,204)">
    <rect width="608" height="224" rx="10" fill="#111827" stroke="#581c87"/>
    <rect width="608" height="36" rx="10" fill="#581c87"/>
    <rect x="14" y="8" width="10" height="20" rx="2" fill="#c084fc"/>
    <text x="34" y="23" font-size="13" font-weight="700" fill="#e9d5ff">🎢 Alt Growth</text>
    <rect x="540" y="8" width="56" height="20" rx="10" fill="#14532d"/>
    <text x="568" y="23" text-anchor="middle" font-size="10" fill="#4ade80" font-weight="700">ACTIVE</text>

    <g transform="translate(16,56)" font-size="11">
      <text fill="#9ca3af">마켓셋</text>
      <g transform="translate(0,10)">
        <rect width="90" height="22" rx="10" fill="#581c87"/><text x="45" y="15" text-anchor="middle" fill="#e9d5ff">KRW-AVAX</text>
        <rect x="96" width="90" height="22" rx="10" fill="#581c87"/><text x="141" y="15" text-anchor="middle" fill="#e9d5ff">KRW-NEAR</text>
        <rect x="192" width="86" height="22" rx="10" fill="#581c87"/><text x="235" y="15" text-anchor="middle" fill="#e9d5ff">KRW-LINK</text>
        <rect x="284" width="78" height="22" rx="10" fill="#581c87"/><text x="323" y="15" text-anchor="middle" fill="#e9d5ff">KRW-SUI</text>
      </g>

      <text y="62" fill="#9ca3af">TP / SL</text>
      <rect x="100" y="48" width="60" height="24" rx="5" fill="#0f1419" stroke="#2a3142"/><text x="130" y="65" text-anchor="middle" fill="#4ade80" font-weight="600">+3.5%</text>
      <rect x="168" y="48" width="60" height="24" rx="5" fill="#0f1419" stroke="#2a3142"/><text x="198" y="65" text-anchor="middle" fill="#f87171" font-weight="600">−2.5%</text>

      <text y="62" x="280" fill="#9ca3af">Order KRW</text>
      <rect x="370" y="48" width="100" height="24" rx="5" fill="#0f1419" stroke="#2a3142"/><text x="420" y="65" text-anchor="middle" fill="#e5e7eb" font-weight="600">20,000</text>

      <text y="62" x="490" fill="#9ca3af">Max Add</text>
      <rect x="560" y="48" width="30" height="24" rx="5" fill="#0f1419" stroke="#2a3142"/><text x="575" y="65" text-anchor="middle" fill="#e5e7eb" font-weight="600">2</text>

      <text y="102" fill="#9ca3af">Strategy Override</text>
      <rect x="120" y="90" width="140" height="22" rx="10" fill="#581c87"/><text x="190" y="105" text-anchor="middle" fill="#e9d5ff" font-size="10" font-weight="700">TriangleConvergence</text>
      <rect x="264" y="90" width="160" height="22" rx="10" fill="#581c87"/><text x="344" y="105" text-anchor="middle" fill="#e9d5ff" font-size="10" font-weight="700">BollingerSqueezeBreakout</text>

      <text y="140" fill="#6b7280" font-size="10" font-style="italic">※ 변동성 큰 알트는 TP/SL 넓게, Max Add 2회로 평단 방어</text>
    </g>
  </g>

  <!-- Group card 3 -->
  <g transform="translate(24,448)">
    <rect width="608" height="196" rx="10" fill="#111827" stroke="#7c2d12"/>
    <rect width="608" height="36" rx="10" fill="#7c2d12"/>
    <rect x="14" y="8" width="10" height="20" rx="2" fill="#fdba74"/>
    <text x="34" y="23" font-size="13" font-weight="700" fill="#fed7aa">⚡ Scalp Short</text>
    <rect x="540" y="8" width="56" height="20" rx="10" fill="#14532d"/>
    <text x="568" y="23" text-anchor="middle" font-size="10" fill="#4ade80" font-weight="700">ACTIVE</text>

    <g transform="translate(16,56)" font-size="11">
      <text fill="#9ca3af">마켓셋</text>
      <g transform="translate(0,10)">
        <rect width="78" height="22" rx="10" fill="#7c2d12"/><text x="39" y="15" text-anchor="middle" fill="#fed7aa">KRW-ETH</text>
        <rect x="84" width="78" height="22" rx="10" fill="#7c2d12"/><text x="123" y="15" text-anchor="middle" fill="#fed7aa">KRW-SOL</text>
      </g>

      <text y="62" fill="#9ca3af">TP / SL</text>
      <rect x="100" y="48" width="60" height="24" rx="5" fill="#0f1419" stroke="#2a3142"/><text x="130" y="65" text-anchor="middle" fill="#4ade80" font-weight="600">+1.2%</text>
      <rect x="168" y="48" width="60" height="24" rx="5" fill="#0f1419" stroke="#2a3142"/><text x="198" y="65" text-anchor="middle" fill="#f87171" font-weight="600">−0.8%</text>

      <text y="62" x="280" fill="#9ca3af">Candle</text>
      <rect x="350" y="48" width="60" height="24" rx="5" fill="#0f1419" stroke="#2a3142"/><text x="380" y="65" text-anchor="middle" fill="#e5e7eb" font-weight="600">5m</text>

      <text y="62" x="430" fill="#9ca3af">Order KRW</text>
      <rect x="520" y="48" width="80" height="24" rx="5" fill="#0f1419" stroke="#2a3142"/><text x="560" y="65" text-anchor="middle" fill="#e5e7eb" font-weight="600">10,000</text>

      <text y="110" fill="#6b7280" font-size="10" font-style="italic">※ 5분봉 스캘핑 · ScalpRsiBounce + ScalpEmaPullback 조합</text>
    </g>
  </g>

  <!-- Group card 4 - inactive -->
  <g transform="translate(648,448)">
    <rect width="608" height="196" rx="10" fill="#0f131c" stroke="#1f2937" stroke-dasharray="4 4"/>
    <rect width="608" height="36" rx="10" fill="#1f2937"/>
    <rect x="14" y="8" width="10" height="20" rx="2" fill="#6b7280"/>
    <text x="34" y="23" font-size="13" font-weight="700" fill="#9ca3af">🧪 Test Backtest</text>
    <rect x="536" y="8" width="64" height="20" rx="10" fill="#374151"/>
    <text x="568" y="23" text-anchor="middle" font-size="10" fill="#9ca3af" font-weight="700">INACTIVE</text>

    <g transform="translate(16,56)" font-size="11" fill="#6b7280">
      <text>마켓셋: KRW-DOGE, KRW-SHIB</text>
      <text y="28">TP / SL: +5.0% / −3.0%</text>
      <text y="52">Candle: 15m · Order KRW: 5,000</text>
      <text y="110" font-size="10" font-style="italic">※ 백테스트 검증 후 ACTIVATE 예정 (미실행)</text>
    </g>
  </g>

  <text x="640" y="700" text-anchor="middle" font-size="13" fill="#9ca3af" font-style="italic">전략 그룹 — 마켓셋별로 TP/SL/주문금액/전략을 독립 오버라이드 (Major/Alt/Scalp 분리 운영)</text>
</svg>
