<svg xmlns="http://www.w3.org/2000/svg" viewBox="0 0 1280 760" font-family="Inter, -apple-system, Segoe UI, sans-serif">
  <rect width="1280" height="760" fill="#0b0e14"/>
  <rect width="1280" height="56" fill="#0a0d12"/>
  <circle cx="32" cy="28" r="14" fill="#3b82f6"/><text x="32" y="34" text-anchor="middle" font-size="14" font-weight="700" fill="#fff">₿</text>
  <text x="56" y="34" font-size="14" font-weight="700" fill="#e5e7eb">Upbit AutoTrade</text>
  <text x="220" y="34" font-size="12" fill="#9ca3af">📊 대시보드</text>
  <text x="300" y="34" font-size="12" fill="#9ca3af">⚙️ 설정</text>
  <rect x="360" y="16" width="88" height="28" rx="6" fill="#1e3a8a"/>
  <text x="404" y="34" text-anchor="middle" font-size="12" fill="#93c5fd" font-weight="600">🧪 백테스트</text>

  <!-- LEFT: parameter form -->
  <g transform="translate(24,80)">
    <rect width="360" height="660" rx="10" fill="#111827" stroke="#1f2937"/>
    <rect width="360" height="40" rx="10" fill="#0d1117"/>
    <text x="20" y="26" font-size="13" font-weight="600" fill="#e5e7eb">⚙️ 백테스트 파라미터</text>

    <g transform="translate(20,60)" font-size="11">
      <text fill="#9ca3af">마켓 선택</text>
      <rect x="0" y="10" width="320" height="34" rx="6" fill="#0f1419" stroke="#2a3142"/>
      <text x="14" y="32" fill="#e5e7eb" font-weight="600">TOP 20 자동선택 ▾</text>

      <text y="68" fill="#9ca3af">기간</text>
      <rect x="0" y="76" width="150" height="34" rx="6" fill="#0f1419" stroke="#2a3142"/>
      <text x="14" y="98" fill="#e5e7eb">2026-03-18</text>
      <text x="155" y="98" fill="#6b7280">→</text>
      <rect x="170" y="76" width="150" height="34" rx="6" fill="#0f1419" stroke="#2a3142"/>
      <text x="184" y="98" fill="#e5e7eb">2026-04-18</text>

      <text y="134" fill="#9ca3af">봉 단위</text>
      <g transform="translate(0,142)" font-size="11">
        <rect width="58" height="26" rx="5" fill="#1f2937"/><text x="29" y="17" text-anchor="middle" fill="#9ca3af">1m</text>
        <rect x="64" width="58" height="26" rx="5" fill="#3b82f6"/><text x="93" y="17" text-anchor="middle" fill="#fff" font-weight="600">5m</text>
        <rect x="128" width="58" height="26" rx="5" fill="#1f2937"/><text x="157" y="17" text-anchor="middle" fill="#9ca3af">15m</text>
        <rect x="192" width="58" height="26" rx="5" fill="#1f2937"/><text x="221" y="17" text-anchor="middle" fill="#9ca3af">60m</text>
        <rect x="256" width="64" height="26" rx="5" fill="#1f2937"/><text x="288" y="17" text-anchor="middle" fill="#9ca3af">240m</text>
      </g>

      <text y="200" fill="#9ca3af">전략</text>
      <rect x="0" y="208" width="320" height="34" rx="6" fill="#0f1419" stroke="#2a3142"/>
      <text x="14" y="230" fill="#e5e7eb">ScalpOpeningBreak ▾</text>

      <text y="266" fill="#9ca3af">시드 자본</text>
      <rect x="0" y="274" width="320" height="34" rx="6" fill="#0f1419" stroke="#2a3142"/>
      <text x="14" y="296" fill="#e5e7eb" font-weight="600">10,000,000 KRW</text>

      <text y="332" fill="#9ca3af">TP / SL</text>
      <rect x="0" y="340" width="150" height="34" rx="6" fill="#0f1419" stroke="#2a3142"/>
      <text x="14" y="362" fill="#4ade80" font-weight="600">+2.5%</text>
      <rect x="170" y="340" width="150" height="34" rx="6" fill="#0f1419" stroke="#2a3142"/>
      <text x="184" y="362" fill="#f87171" font-weight="600">−2.5%</text>

      <text y="398" fill="#9ca3af">Trail Drop</text>
      <rect x="0" y="406" width="150" height="34" rx="6" fill="#0f1419" stroke="#2a3142"/>
      <text x="14" y="428" fill="#93c5fd" font-weight="600">1.00%</text>

      <text y="398" x="170" fill="#9ca3af">Split Ratio</text>
      <rect x="170" y="406" width="150" height="34" rx="6" fill="#0f1419" stroke="#2a3142"/>
      <text x="184" y="428" fill="#e5e7eb" font-weight="600">50 / 50</text>

      <rect x="0" y="460" width="320" height="44" rx="8" fill="#2563eb"/>
      <text x="160" y="488" text-anchor="middle" font-size="14" fill="#fff" font-weight="700">▶ 백테스트 실행</text>

      <rect x="0" y="516" width="320" height="36" rx="6" fill="#1f2937"/>
      <text x="160" y="539" text-anchor="middle" font-size="12" fill="#93c5fd" font-weight="600">🎛 2-Phase 최적화로 이어가기</text>
    </g>
  </g>

  <!-- RIGHT: results -->
  <g transform="translate(400,80)">
    <!-- Summary cards -->
    <g>
      <rect width="212" height="80" rx="10" fill="#0d3320" stroke="#134e2b"/>
      <text x="16" y="24" font-size="11" fill="#6ee7b7">Net PnL</text>
      <text x="16" y="56" font-size="22" font-weight="700" fill="#4ade80">+2,847,020</text>
      <text x="196" y="72" text-anchor="end" font-size="10" fill="#6ee7b7">+28.47%</text>

      <g transform="translate(224,0)">
        <rect width="212" height="80" rx="10" fill="#1e2a52" stroke="#1e3a8a"/>
        <text x="16" y="24" font-size="11" fill="#93c5fd">Win Rate</text>
        <text x="16" y="56" font-size="22" font-weight="700" fill="#60a5fa">62.8%</text>
        <text x="196" y="72" text-anchor="end" font-size="10" fill="#93c5fd">183 / 291</text>
      </g>

      <g transform="translate(448,0)">
        <rect width="212" height="80" rx="10" fill="#111827" stroke="#1f2937"/>
        <text x="16" y="24" font-size="11" fill="#9ca3af">Profit Factor</text>
        <text x="16" y="56" font-size="22" font-weight="700" fill="#e5e7eb">2.18</text>
        <text x="196" y="72" text-anchor="end" font-size="10" fill="#9ca3af">Sharpe 1.84</text>
      </g>

      <g transform="translate(672,0)">
        <rect width="184" height="80" rx="10" fill="#111827" stroke="#1f2937"/>
        <text x="16" y="24" font-size="11" fill="#fbbf24">Max DD</text>
        <text x="16" y="56" font-size="22" font-weight="700" fill="#f87171">−4.32%</text>
        <text x="168" y="72" text-anchor="end" font-size="10" fill="#fbbf24">Recovery 7d</text>
      </g>
    </g>

    <!-- Equity curve -->
    <g transform="translate(0,96)">
      <rect width="856" height="240" rx="10" fill="#111827" stroke="#1f2937"/>
      <text x="16" y="26" font-size="13" font-weight="600" fill="#e5e7eb">📈 Equity Curve</text>
      <text x="840" y="26" text-anchor="end" font-size="10" fill="#6b7280">31 days · 291 trades</text>

      <!-- grid -->
      <g stroke="#1f2937">
        <path d="M20 60 H836 M20 100 H836 M20 140 H836 M20 180 H836"/>
      </g>
      <!-- baseline -->
      <path d="M20 180 L836 180" stroke="#374151" stroke-dasharray="3 3"/>
      <!-- equity line -->
      <path d="M20 180 L80 175 L140 168 L200 155 L260 162 L320 140 L380 128 L440 115 L500 98 L560 106 L620 88 L680 72 L740 55 L800 48 L836 42"
            stroke="#22c55e" stroke-width="2.5" fill="none"/>
      <path d="M20 180 L80 175 L140 168 L200 155 L260 162 L320 140 L380 128 L440 115 L500 98 L560 106 L620 88 L680 72 L740 55 L800 48 L836 42 L836 220 L20 220 Z"
            fill="#22c55e" fill-opacity="0.1"/>

      <!-- trade markers -->
      <g>
        <circle cx="140" cy="168" r="3" fill="#4ade80"/>
        <circle cx="260" cy="162" r="3" fill="#f87171"/>
        <circle cx="380" cy="128" r="3" fill="#4ade80"/>
        <circle cx="500" cy="98" r="3" fill="#4ade80"/>
        <circle cx="620" cy="88" r="3" fill="#4ade80"/>
        <circle cx="740" cy="55" r="3" fill="#4ade80"/>
      </g>
      <g font-size="9" fill="#4b5563">
        <text x="20" y="232">03/18</text>
        <text x="220" y="232">03/25</text>
        <text x="420" y="232">04/01</text>
        <text x="620" y="232">04/08</text>
        <text x="836" y="232" text-anchor="end">04/18</text>
      </g>
    </g>

    <!-- Trade log -->
    <g transform="translate(0,352)">
      <rect width="856" height="288" rx="10" fill="#111827" stroke="#1f2937"/>
      <text x="16" y="26" font-size="13" font-weight="600" fill="#e5e7eb">📋 체결 로그</text>

      <g font-size="10" fill="#6b7280" transform="translate(16,52)">
        <text>Time</text><text x="140">Market</text><text x="240">Side</text><text x="320">Price</text><text x="430">Qty</text><text x="540">PnL</text><text x="640">ROI</text><text x="740">Strategy</text>
      </g>
      <line x1="16" y1="62" x2="840" y2="62" stroke="#1f2937"/>

      <g font-size="11" fill="#e5e7eb" transform="translate(16,82)">
        <text>04/18 09:07:14</text><text x="140">KRW-SOL</text><text x="240" fill="#4ade80">BUY</text><text x="320">183,420</text><text x="430">0.1634</text><text x="540" fill="#6b7280">—</text><text x="640" fill="#6b7280">—</text><text x="740" fill="#93c5fd">ScalpOpeningBreak</text>
      </g>
      <g font-size="11" fill="#e5e7eb" transform="translate(16,104)">
        <text>04/18 09:21:58</text><text x="140">KRW-SOL</text><text x="240" fill="#fbbf24">SELL ½</text><text x="320">187,150</text><text x="430">0.0817</text><text x="540" fill="#4ade80">+15,240</text><text x="640" fill="#4ade80">+2.03%</text><text x="740" fill="#93c5fd">SPLIT_1ST_TRAIL</text>
      </g>
      <g font-size="11" fill="#e5e7eb" transform="translate(16,126)">
        <text>04/18 09:48:12</text><text x="140">KRW-SOL</text><text x="240" fill="#f87171">SELL</text><text x="320">189,300</text><text x="430">0.0817</text><text x="540" fill="#4ade80">+20,480</text><text x="640" fill="#4ade80">+2.73%</text><text x="740" fill="#93c5fd">SPLIT_2ND_TRAIL</text>
      </g>
      <line x1="16" y1="140" x2="840" y2="140" stroke="#1f2937"/>
      <g font-size="11" fill="#e5e7eb" transform="translate(16,162)">
        <text>04/18 10:12:33</text><text x="140">KRW-ADA</text><text x="240" fill="#4ade80">BUY</text><text x="320">1,284</text><text x="430">5,200.0</text><text x="540" fill="#6b7280">—</text><text x="640" fill="#6b7280">—</text><text x="740" fill="#93c5fd">BullishEngulfing</text>
      </g>
      <g font-size="11" fill="#e5e7eb" transform="translate(16,184)">
        <text>04/18 10:48:01</text><text x="140">KRW-ADA</text><text x="240" fill="#f87171">SELL</text><text x="320">1,267</text><text x="430">5,200.0</text><text x="540" fill="#f87171">−88,400</text><text x="640" fill="#f87171">−1.32%</text><text x="740" fill="#fbbf24">SL</text>
      </g>
      <line x1="16" y1="198" x2="840" y2="198" stroke="#1f2937"/>
      <g font-size="11" fill="#e5e7eb" transform="translate(16,220)">
        <text>04/18 11:03:45</text><text x="140">KRW-AVAX</text><text x="240" fill="#4ade80">BUY</text><text x="320">48,200</text><text x="430">3.1120</text><text x="540" fill="#6b7280">—</text><text x="640" fill="#6b7280">—</text><text x="740" fill="#93c5fd">MomentumFvgPullback</text>
      </g>
      <g font-size="11" fill="#e5e7eb" transform="translate(16,242)">
        <text>04/18 11:39:17</text><text x="140">KRW-AVAX</text><text x="240" fill="#f87171">SELL</text><text x="320">49,400</text><text x="430">3.1120</text><text x="540" fill="#4ade80">+37,344</text><text x="640" fill="#4ade80">+2.49%</text><text x="740" fill="#93c5fd">TP</text>
      </g>
      <text x="16" y="278" font-size="10" fill="#6b7280">... 281 more trades</text>
    </g>
  </g>

  <text x="640" y="752" text-anchor="middle" font-size="13" fill="#9ca3af" font-style="italic">백테스트 — 파라미터 설정 → 실행 → Equity Curve · 승률 · Profit Factor · 체결 로그 상세 확인</text>
</svg>
